<?xml version="1.0" encoding="UTF-8" standalone="no"?>
<svg
   xmlns:dc="http://purl.org/dc/elements/1.1/"
   xmlns:cc="http://creativecommons.org/ns#"
   xmlns:rdf="http://www.w3.org/1999/02/22-rdf-syntax-ns#"
   xmlns:svg="http://www.w3.org/2000/svg"
   xmlns="http://www.w3.org/2000/svg"
   xmlns:sodipodi="http://sodipodi.sourceforge.net/DTD/sodipodi-0.dtd"
   xmlns:inkscape="http://www.inkscape.org/namespaces/inkscape"
   width="320"
   height="320"
   id="svg2"
   version="1.1"
   inkscape:version="0.91 r13725"
   sodipodi:docname="back-x.svg">
  <metadata
     id="metadata17">
    <rdf:RDF>
      <cc:Work
         rdf:about="">
        <dc:format>image/svg+xml</dc:format>
        <dc:type
           rdf:resource="http://purl.org/dc/dcmitype/StillImage" />
        <dc:title>Back X</dc:title>
      </cc:Work>
    </rdf:RDF>
  </metadata>
  <defs
     id="defs15" />
  <sodipodi:namedview
     pagecolor="#ffffff"
     bordercolor="#666666"
     borderopacity="1"
     objecttolerance="10"
     gridtolerance="10"
     guidetolerance="10"
     inkscape:pageopacity="0"
     inkscape:pageshadow="2"
     inkscape:window-width="1280"
     inkscape:window-height="948"
     id="namedview13"
     showgrid="false"
     inkscape:zoom="0.7375"
     inkscape:cx="160"
     inkscape:cy="431.18644"
     inkscape:window-x="-4"
     inkscape:window-y="-4"
     inkscape:window-maximized="1"
     inkscape:current-layer="svg2" />
  <title
     id="title4">Back X</title>
  <g
     id="g6">
    <title
       id="title8">Layer 1</title>
    <g
       id="layer1">
      <path
         id="path4950"
         d="M 100,60 C 72.248709,62.119366 55.294232,72.636254 60,100 l 170,170 c 19.84049,-2.1782 44.32827,3.61037 40,-40 z"
         inkscape:connector-curvature="0"
         style="fill:#000000;fill-rule:evenodd;stroke-width:0.25pt"
         sodipodi:nodetypes="ccccc" />
      <path
         id="path4952"
         d="M 60,230 230,60 c 31.95851,2.986012 40.42801,19.021476 40,40 L 100,270 C 54.326862,281.54344 60.548859,253.16754 60,230 Z"
         inkscape:connector-curvature="0"
         style="fill:#000000;fill-rule:evenodd;stroke-width:0.25pt"
         sodipodi:nodetypes="ccccc" />
    </g>
  </g>
  <path
     style="fill:#20ff1b;fill-opacity:1"
     d="m 71.36816,269.62502 c -7.476118,-3.77141 -9.864543,-9.40347 -10.617321,-25.0364 l -0.652375,-13.54786 33.059034,-33.0797 33.059032,-33.0797 -33.033386,-33.05404 -33.033386,-33.054043 0.535017,-9.468474 c 0.443973,-7.857236 1.196826,-10.336154 4.424152,-14.567396 4.516861,-5.921909 14.424102,-10.905003 25.898074,-13.026082 l 7.872583,-1.455326 33.000886,32.980267 33.00089,32.980264 32.9657,-32.94511 32.96571,-32.945113 9.799,2.228735 c 16.56481,3.767585 26.45883,13.972658 28.25565,29.143938 l 0.82806,6.991716 -33.07465,33.095334 -33.07465,33.09533 33.04893,33.06958 33.04892,33.06959 -0.61448,11.7074 c -0.9566,18.22562 -5.76113,23.0635 -25.29279,25.46833 l -12.61119,1.55274 -33.12211,-33.10141 -33.1221,-33.10141 -32.98023,32.95962 c -27.93669,27.91923 -33.794532,33.14846 -38.305083,34.19457 -8.342381,1.93476 -17.100813,1.51105 -22.227887,-1.07535 z"
     id="path4145"
     inkscape:connector-curvature="0" />
</svg>
