<?xml version="1.0" encoding="UTF-8" standalone="no"?>
<svg
   xmlns:dc="http://purl.org/dc/elements/1.1/"
   xmlns:cc="http://creativecommons.org/ns#"
   xmlns:rdf="http://www.w3.org/1999/02/22-rdf-syntax-ns#"
   xmlns:svg="http://www.w3.org/2000/svg"
   xmlns="http://www.w3.org/2000/svg"
   xmlns:xlink="http://www.w3.org/1999/xlink"
   xmlns:sodipodi="http://sodipodi.sourceforge.net/DTD/sodipodi-0.dtd"
   xmlns:inkscape="http://www.inkscape.org/namespaces/inkscape"
   width="300"
   height="300"
   id="page_header_footer_search_icon"
   version="1.1"
   inkscape:version="0.91 r13725"
   sodipodi:docname="search-icon.svg">
  <sodipodi:namedview
     pagecolor="#ffffff"
     bordercolor="#666666"
     borderopacity="1"
     objecttolerance="10"
     gridtolerance="10"
     guidetolerance="10"
     inkscape:pageopacity="0"
     inkscape:pageshadow="2"
     inkscape:window-width="1280"
     inkscape:window-height="948"
     id="namedview18"
     showgrid="false"
     inkscape:zoom="0.78666667"
     inkscape:cx="-50.847458"
     inkscape:cy="150"
     inkscape:window-x="-4"
     inkscape:window-y="-4"
     inkscape:window-maximized="1"
     inkscape:current-layer="g13" />
  <title
     id="title4">search icon</title>
  <defs
     id="defs6">
    <linearGradient
       id="linearGradient12975">
      <stop
         offset="0"
         id="stop12977"
         stop-color="#ffffff" />
      <stop
         offset="1"
         id="stop12979"
         stop-color="#d2d5d8" />
    </linearGradient>
    <linearGradient
       xlink:href="#linearGradient12975"
       id="linearGradient12981"
       x1="0.5"
       y1="0.166667"
       x2="0.162791"
       y2="1.236288" />
  </defs>
  <metadata
     id="metadata12220">image/svg+xmlSergio Luiz Araujo Silvasearchiconsinformaticcomputer<rdf:RDF>
  <cc:Work
     rdf:about="">
    <dc:format>image/svg+xml</dc:format>
    <dc:type
       rdf:resource="http://purl.org/dc/dcmitype/StillImage" />
  </cc:Work>
</rdf:RDF>
</metadata>
  <g
     id="g13">
    <title
       id="title15">Layer 1</title>
    <path
       d="m37.938995,39.085999c-43.272995,43.272003 -43.378998,114.158997 -0.105988,157.432007c36.662994,36.663025 93.201996,42.25 135.92099,16.765991l76.343994,74.234985c10.506989,10.197998 27.084991,9.821045 37.116974,-0.843994c10.03302,-10.664978 9.77002,-27.445984 -0.737976,-37.643982l-75.182983,-72.864014c26.360992,-42.846985 21.007996,-100.044983 -16.028015,-137.080994c-43.27298,-43.27301 -114.054993,-43.27301 -157.326996,0l0,0zm31.738983,31.739014c26.10202,-26.10202 67.746033,-26.10202 93.848022,0c26.10199,26.10199 26.10199,67.745972 0,93.847961c-26.10199,26.102051 -67.746002,26.102051 -93.848022,0c-26.10199,-26.10199 -26.10199,-67.745972 0,-93.847961z"
       id="path12423"
       stroke-width="9.756173"
       fill="#454040"
       style="fill:#5dc21c;fill-opacity:1" />
  </g>
</svg>
